HIERARCHY
ROOT joint_0
{
	OFFSET 0.000000 0.000000 0.000000
	CHANNELS 6 Xposition Yposition Zposition Zrotation Yrotation Xrotation 
	JOINT joint_1
	{
		OFFSET 7.745728 2.152245 124.869995
		CHANNELS 3 Zrotation Yrotation Xrotation
		JOINT joint_2
		{
			OFFSET -6.359406 2.617477 113.975952
			CHANNELS 3 Zrotation Yrotation Xrotation
			JOINT joint_3
			{
				OFFSET -8.187927 3.340103 113.713013
				CHANNELS 3 Zrotation Yrotation Xrotation
				JOINT joint_4
				{
					OFFSET 2.859222 5.755905 159.680054
					CHANNELS 3 Zrotation Yrotation Xrotation
					JOINT joint_5
					{
						OFFSET 22.724274 2.598469 88.906982
						CHANNELS 3 Zrotation Yrotation Xrotation
						End Site
						{
							OFFSET 0.000000 0.000000 0.000000
						}
					}
				}
				JOINT joint_6
				{
					OFFSET 2.312134 -31.513222 90.723022
					CHANNELS 3 Zrotation Yrotation Xrotation
					JOINT joint_7
					{
						OFFSET -0.486389 -150.827950 -17.660034
						CHANNELS 3 Zrotation Yrotation Xrotation
						JOINT joint_8
						{
							OFFSET 15.633850 -16.961029 -297.395020
							CHANNELS 3 Zrotation Yrotation Xrotation
							JOINT joint_9
							{
								OFFSET 5.600098 1.609863 -262.782959
								CHANNELS 3 Zrotation Yrotation Xrotation
								End Site
								{
									OFFSET 0.000000 0.000000 0.000000
								}
							}
						}
					}
				}
				JOINT joint_10
				{
					OFFSET 1.012756 37.963039 88.243042
					CHANNELS 3 Zrotation Yrotation Xrotation
					JOINT joint_11
					{
						OFFSET -2.397430 150.471996 -20.492065
						CHANNELS 3 Zrotation Yrotation Xrotation
						JOINT joint_12
						{
							OFFSET -10.575745 12.779427 -297.765015
							CHANNELS 3 Zrotation Yrotation Xrotation
							JOINT joint_13
							{
								OFFSET 196.311081 2.689713 -176.286011
								CHANNELS 3 Zrotation Yrotation Xrotation
								End Site
								{
									OFFSET 0.000000 0.000000 0.000000
								}
							}
						}
					}
				}
			}
		}
	}
	JOINT joint_14
	{
		OFFSET 1.244965 -96.891136 -118.152039
		CHANNELS 3 Zrotation Yrotation Xrotation
		JOINT joint_15
		{
			OFFSET -2.982971 -16.401871 -443.439026
			CHANNELS 3 Zrotation Yrotation Xrotation
			JOINT joint_16
			{
				OFFSET -42.052063 -15.386002 -460.966980
				CHANNELS 3 Zrotation Yrotation Xrotation
				JOINT joint_17
				{
					OFFSET 177.916595 102.818184 -88.655001
					CHANNELS 3 Zrotation Yrotation Xrotation
					End Site
					{
						OFFSET 0.000000 0.000000 0.000000
					}
				}
			}
		}
	}
	JOINT joint_18
	{
		OFFSET 1.788635 96.476997 -118.463074
		CHANNELS 3 Zrotation Yrotation Xrotation
		JOINT joint_19
		{
			OFFSET -9.555542 8.093691 -443.574951
			CHANNELS 3 Zrotation Yrotation Xrotation
			JOINT joint_20
			{
				OFFSET -48.427551 9.415819 -460.500023
				CHANNELS 3 Zrotation Yrotation Xrotation
				JOINT joint_21
				{
					OFFSET 204.978119 20.223980 -87.523996
					CHANNELS 3 Zrotation Yrotation Xrotation
					End Site
					{
						OFFSET 0.000000 0.000000 0.000000
					}
				}
			}
		}
	}
}
MOTION
Frames: 7
Frame Time: 0.016667
-413.722168 -92.520439 1134.994019 -1.442042 0.419207 -0.072208 -0.244478 0.185559 0.912783 -0.301294 -0.045666 -0.194533 -0.278751 0.026572 0.146161 0.073506 0.846316 -0.402808 0.000000 0.000000 0.000000 6.128507 -0.325501 2.640440 -0.281842 0.451365 -4.581508 0.007693 -0.003429 0.370008 0.000000 0.000000 0.000000 -3.452526 -2.655247 -1.586761 0.105430 -2.256856 1.162928 2.253288 49.386345 -1.569886 0.000000 0.000000 0.000000 -2.248783 -2.129362 0.929407 -2.366977 1.289666 -0.939649 -2.321825 -0.661717 -0.774242 0.000000 0.000000 0.000000 -1.800619 -1.169689 -0.083398 -1.752080 0.567710 -0.890853 -1.757808 0.779838 -0.826824 0.000000 0.000000 0.000000 
-413.735321 -92.515884 1135.000977 -1.459559 0.400547 -0.073781 -0.250365 0.157679 0.895606 -0.306711 -0.035917 -0.188703 -0.284302 0.015640 0.142037 0.061048 0.882082 -0.359175 0.000000 0.000000 0.000000 6.129259 -0.309738 2.634755 -0.281801 0.466982 -4.551449 0.006995 -0.034808 0.339384 0.000000 0.000000 0.000000 -3.449191 -2.658659 -1.549590 0.098980 -2.262121 1.173735 2.249837 49.404795 -1.606242 0.000000 0.000000 0.000000 -2.248938 -2.136851 0.937628 -2.368999 1.335655 -0.956410 -2.324201 -0.672324 -0.769293 0.000000 0.000000 0.000000 -1.800958 -1.168388 -0.078404 -1.751299 0.607152 -0.905344 -1.759761 0.768606 -0.826538 0.000000 0.000000 0.000000 
-413.721558 -92.508408 1134.994995 -1.473344 0.394637 -0.070486 -0.260292 0.115022 0.872547 -0.316050 -0.028136 -0.181684 -0.293912 0.004266 0.137726 0.048843 0.914555 -0.316118 0.000000 0.000000 0.000000 6.129994 -0.292611 2.611661 -0.281085 0.483760 -4.511357 0.006587 -0.055359 0.321893 0.000000 0.000000 0.000000 -3.448253 -2.653551 -1.490276 0.098352 -2.258870 1.158225 2.249836 49.414935 -1.639373 0.000000 0.000000 0.000000 -2.249716 -2.155655 0.942940 -2.371994 1.379205 -0.977199 -2.327957 -0.682840 -0.765080 0.000000 0.000000 0.000000 -1.802200 -1.177879 -0.081407 -1.751628 0.641676 -0.913982 -1.761948 0.761177 -0.826730 0.000000 0.000000 0.000000 
-413.751526 -92.481422 1134.949951 -1.467949 0.402037 -0.056646 -0.279567 0.051034 0.842418 -0.334826 -0.021990 -0.175758 -0.312840 -0.006783 0.134709 0.037258 0.955080 -0.276621 0.000000 0.000000 0.000000 6.140631 -0.280651 2.559277 -0.278754 0.496137 -4.460323 0.006775 -0.048009 0.330134 0.000000 0.000000 0.000000 -3.463734 -2.645870 -1.402137 0.131522 -2.249782 1.092606 2.277467 49.422939 -1.629924 0.000000 0.000000 0.000000 -2.254833 -2.186051 0.940528 -2.379470 1.414757 -1.005783 -2.336987 -0.694853 -0.762617 0.000000 0.000000 0.000000 -1.807607 -1.205492 -0.103279 -1.756633 0.671519 -0.907741 -1.766583 0.766073 -0.829185 0.000000 0.000000 0.000000 
-413.835968 -92.440292 1134.875000 -1.448403 0.416701 -0.034061 -0.304923 -0.027493 0.806498 -0.359636 -0.018738 -0.170262 -0.337914 -0.015175 0.131832 0.026166 1.000736 -0.239806 0.000000 0.000000 0.000000 6.157233 -0.275624 2.485392 -0.274796 0.501950 -4.402626 0.007416 -0.014531 0.357305 0.000000 0.000000 0.000000 -3.498655 -2.639302 -1.293540 0.192030 -2.238328 0.993773 2.328293 49.434551 -1.588551 0.000000 0.000000 0.000000 -2.263129 -2.226294 0.931806 -2.390479 1.449686 -1.041076 -2.350074 -0.708319 -0.761324 0.000000 0.000000 0.000000 -1.816378 -1.246419 -0.140378 -1.765370 0.700595 -0.890213 -1.773305 0.780594 -0.833482 0.000000 0.000000 0.000000 
-413.579834 -92.410492 1134.821045 -1.445477 0.481177 -0.015279 -0.334297 -0.144679 0.768965 -0.389625 -0.011824 -0.170307 -0.367137 -0.030883 0.133414 0.013787 1.009026 -0.192911 0.000000 0.000000 0.000000 6.156959 -0.239352 2.383936 -0.273235 0.537227 -4.312972 0.008380 -0.012534 0.404201 0.000000 0.000000 0.000000 -3.478270 -2.584063 -1.132450 0.205083 -2.189509 0.842868 2.329362 49.380226 -1.609626 0.000000 0.000000 0.000000 -2.266791 -2.288111 0.928258 -2.396585 1.453913 -1.074530 -2.359038 -0.714919 -0.761953 0.000000 0.000000 0.000000 -1.820548 -1.303312 -0.171558 -1.769671 0.698300 -0.873449 -1.775456 0.785980 -0.834934 0.000000 0.000000 0.000000 
-412.827179 -92.358658 1134.775024 -1.481760 0.620421 -0.012098 -0.372684 -0.305276 0.762703 -0.432721 -0.001309 -0.193224 -0.406160 -0.056505 0.152855 -0.001412 0.933301 -0.123453 0.000000 0.000000 0.000000 6.100194 -0.162798 2.242154 -0.275842 0.606594 -4.183764 0.009402 -0.078218 0.463227 0.000000 0.000000 0.000000 -3.295176 -2.457613 -0.920794 0.100850 -2.098550 0.643582 2.212798 49.202915 -1.772682 0.000000 0.000000 0.000000 -2.259924 -2.379917 0.937309 -2.391578 1.408880 -1.100397 -2.358346 -0.737208 -0.748709 0.000000 0.000000 0.000000 -1.815412 -1.373203 -0.179371 -1.764738 0.636203 -0.870299 -1.770153 0.749835 -0.829110 0.000000 0.000000 0.000000 
